<svg xmlns="http://www.w3.org/2000/svg" viewBox="0 0 256 256" role="img" aria-label="Odds Gods">
  <defs>
    <linearGradient id="top" x1="0" y1="0" x2="1" y2="1">
      <stop offset="0" stop-color="#e5bb72"/>
      <stop offset="1" stop-color="#d8a95d"/>
    </linearGradient>
  </defs>
  <polygon points="128,26 229,86 128,146 27,86" fill="url(#top)"/>
  <polygon points="27,86 128,146 128,230 27,170" fill="#c88f32"/>
  <polygon points="229,86 128,146 128,230 229,170" fill="#c88f32"/>
  <g fill="#0e0c09">
    <ellipse cx="73" cy="94" rx="11" ry="8"/>
    <ellipse cx="128" cy="62" rx="11" ry="8"/>
    <ellipse cx="183" cy="94" rx="11" ry="8"/>
    <ellipse cx="66" cy="132" rx="9" ry="13" transform="rotate(-18 66 132)"/>
    <ellipse cx="95" cy="154" rx="9" ry="13" transform="rotate(-18 95 154)"/>
    <ellipse cx="66" cy="180" rx="9" ry="13" transform="rotate(-18 66 180)"/>
    <ellipse cx="95" cy="202" rx="9" ry="13" transform="rotate(-18 95 202)"/>
    <ellipse cx="190" cy="132" rx="9" ry="13" transform="rotate(18 190 132)"/>
    <ellipse cx="161" cy="154" rx="9" ry="13" transform="rotate(18 161 154)"/>
    <ellipse cx="190" cy="180" rx="9" ry="13" transform="rotate(18 190 180)"/>
    <ellipse cx="161" cy="202" rx="9" ry="13" transform="rotate(18 161 202)"/>
  </g>
  <path d="M151 16 95 124h49l-29 58h33l-43 74 96-136h-47l26-58h-33z" fill="#0e0c09"/>
  <path d="M151 20 98 122h48l-27 55h30l-41 71 89-126h-44l24-54h-31z" fill="none" stroke="#d8a95d" stroke-width="3"/>
</svg>
